<?xml version="1.0" encoding="utf-8"?>
<!-- Generator: Adobe Illustrator 16.0.0, SVG Export Plug-In . SVG Version: 6.00 Build 0)  -->
<!DOCTYPE svg PUBLIC "-//W3C//DTD SVG 1.1//EN" "http://www.w3.org/Graphics/SVG/1.1/DTD/svg11.dtd">
<svg xmlns="http://www.w3.org/2000/svg" xmlns:xlink="http://www.w3.org/1999/xlink" version="1.1" id="Layer_1" x="0px" y="0px" width="512" height="512" viewBox="0 0 512 512" enable-background="new 0 0 512 512" xml:space="preserve">
<g id="cassette">
	<g>
		<path fill="#48CFAD" d="M512,405.328c0,11.781-9.531,21.344-21.312,21.344H21.344C9.562,426.672,0,417.109,0,405.328V106.672    c0-11.781,9.562-21.344,21.344-21.344h469.344c11.781,0,21.312,9.562,21.312,21.344V405.328z"/>
	</g>
	<path fill="#656D78" d="M149.344,352c-35.281,0-64-28.703-64-64c0-35.281,28.719-64,64-64h213.344c35.281,0,64,28.719,64,64   c0,35.297-28.719,64-64,64H149.344z"/>
	<path fill="#37BC9B" d="M415.469,235.203c-14.094-14.109-32.844-21.875-52.781-21.875l0,0H149.344   c-19.938,0-38.688,7.766-52.797,21.875S74.688,268.062,74.688,288c0,19.953,7.75,38.703,21.859,52.797   c14.109,14.109,32.859,21.875,52.797,21.875h0.469l0,0h212.375h0.016h0.484c19.938,0,38.688-7.766,52.781-21.875   c14.109-14.094,21.875-32.844,21.875-52.797C437.344,268.062,429.578,249.312,415.469,235.203z M362.688,341.328   c-0.016,0-0.016,0-0.031,0H149.359c-0.016,0-0.016,0-0.016,0C119.891,341.328,96,317.453,96,288s23.891-53.328,53.344-53.328l0,0   h213.344l0,0C392.125,234.672,416,258.547,416,288S392.125,341.328,362.688,341.328z"/>
	<path fill="#656D78" d="M362.688,234.672L362.688,234.672h-52.219C296.625,248.234,288,267.125,288,288s8.625,39.766,22.469,53.328   h52.188c0.016,0,0.016,0,0.031,0C392.125,341.328,416,317.453,416,288S392.125,234.672,362.688,234.672z"/>
	<path fill="#434A54" d="M298.688,288c0-22.234,11.391-41.859,28.656-53.328h-31.281c-11.703,14.609-18.719,33.141-18.719,53.328   s7.016,38.719,18.719,53.328h31.281C310.078,329.859,298.688,310.234,298.688,288z"/>
	<path fill="#CCD1D9" d="M362.688,330.672C339.156,330.672,320,311.531,320,288s19.156-42.672,42.688-42.672   c23.516,0,42.656,19.141,42.656,42.672S386.203,330.672,362.688,330.672z"/>
	<path fill="#E6E9ED" d="M362.688,234.672c-29.469,0-53.344,23.875-53.344,53.328s23.875,53.328,53.344,53.328   C392.125,341.328,416,317.453,416,288S392.125,234.672,362.688,234.672z M362.688,320c-17.656,0-32-14.359-32-32s14.344-32,32-32   c17.625,0,32,14.359,32,32S380.312,320,362.688,320z"/>
	<g>
		<path fill="#E6E9ED" d="M373.344,256c0,5.891-4.781,10.672-10.656,10.672c-5.906,0-10.688-4.781-10.688-10.672    s4.781-10.672,10.688-10.672C368.562,245.328,373.344,250.109,373.344,256z"/>
		<path fill="#E6E9ED" d="M373.344,320c0,5.891-4.781,10.672-10.656,10.672c-5.906,0-10.688-4.781-10.688-10.672    s4.781-10.672,10.688-10.672C368.562,309.328,373.344,314.109,373.344,320z"/>
		<path fill="#E6E9ED" d="M347.594,257.828c4.156,4.172,4.156,10.922,0,15.094c-4.156,4.156-10.922,4.156-15.094,0    c-4.156-4.172-4.156-10.922,0-15.094C336.672,253.672,343.438,253.672,347.594,257.828z"/>
		<path fill="#E6E9ED" d="M392.844,303.078c4.172,4.172,4.172,10.922,0,15.094c-4.156,4.172-10.906,4.172-15.078,0    s-4.172-10.922,0-15.094C381.938,298.922,388.688,298.922,392.844,303.078z"/>
		<path fill="#E6E9ED" d="M330.688,277.328c5.875,0,10.656,4.781,10.656,10.672s-4.781,10.672-10.656,10.672    c-5.906,0-10.688-4.781-10.688-10.672S324.781,277.328,330.688,277.328z"/>
		<path fill="#E6E9ED" d="M394.688,277.328c5.875,0,10.656,4.781,10.656,10.672s-4.781,10.672-10.656,10.672    c-5.906,0-10.688-4.781-10.688-10.672S388.781,277.328,394.688,277.328z"/>
		<path fill="#E6E9ED" d="M332.5,303.094c4.172-4.172,10.938-4.172,15.094,0c4.156,4.156,4.156,10.906,0,15.078    s-10.922,4.172-15.094,0C328.344,314,328.344,307.25,332.5,303.094z"/>
		<path fill="#E6E9ED" d="M377.766,257.828c4.172-4.156,10.922-4.156,15.078,0c4.172,4.172,4.172,10.922,0,15.094    c-4.156,4.156-10.906,4.156-15.078,0C373.594,268.75,373.594,262,377.766,257.828z"/>
	</g>
	<path fill="#656D78" d="M149.344,234.672C119.891,234.672,96,258.547,96,288s23.891,53.328,53.344,53.328c0,0,0,0,0.016,0h52.188   C215.406,327.766,224,308.875,224,288s-8.594-39.766-22.453-53.328H149.344L149.344,234.672z"/>
	<path fill="#434A54" d="M213.344,288c0,22.234-11.406,41.859-28.656,53.328h31.266c11.703-14.609,18.734-33.141,18.734-53.328   s-7.031-38.719-18.734-53.328h-31.266C201.938,246.141,213.344,265.766,213.344,288z"/>
	<path fill="#CCD1D9" d="M149.344,330.672c-23.531,0-42.656-19.141-42.656-42.672s19.125-42.672,42.656-42.672S192,264.469,192,288   S172.875,330.672,149.344,330.672z"/>
	<path fill="#E6E9ED" d="M149.344,234.672C119.891,234.672,96,258.547,96,288s23.891,53.328,53.344,53.328   s53.344-23.875,53.344-53.328S178.797,234.672,149.344,234.672z M149.344,320c-17.641,0-32-14.359-32-32s14.359-32,32-32   c17.656,0,32,14.359,32,32S167,320,149.344,320z"/>
	<g>
		<path fill="#E6E9ED" d="M160,256c0,5.891-4.766,10.672-10.656,10.672s-10.656-4.781-10.656-10.672s4.766-10.672,10.656-10.672    S160,250.109,160,256z"/>
		<path fill="#E6E9ED" d="M160,320c0,5.891-4.766,10.672-10.656,10.672s-10.656-4.781-10.656-10.672s4.766-10.672,10.656-10.672    S160,314.109,160,320z"/>
		<path fill="#E6E9ED" d="M134.25,257.828c4.172,4.172,4.172,10.922,0,15.094c-4.156,4.156-10.906,4.156-15.078,0    c-4.172-4.172-4.172-10.922,0-15.094C123.344,253.672,130.094,253.672,134.25,257.828z"/>
		<path fill="#E6E9ED" d="M179.516,303.078c4.172,4.172,4.172,10.922,0,15.094s-10.922,4.172-15.078,0    c-4.172-4.172-4.172-10.922,0-15.094C168.594,298.922,175.344,298.922,179.516,303.078z"/>
		<path fill="#E6E9ED" d="M117.344,277.328c5.891,0,10.656,4.781,10.656,10.672s-4.766,10.672-10.656,10.672    s-10.656-4.781-10.656-10.672S111.453,277.328,117.344,277.328z"/>
		<path fill="#E6E9ED" d="M181.344,277.328c5.891,0,10.656,4.781,10.656,10.672s-4.766,10.672-10.656,10.672    s-10.656-4.781-10.656-10.672S175.453,277.328,181.344,277.328z"/>
		<path fill="#E6E9ED" d="M119.172,303.094c4.172-4.172,10.922-4.172,15.078,0c4.188,4.156,4.188,10.906,0,15.078    c-4.156,4.172-10.906,4.172-15.078,0S115,307.25,119.172,303.094z"/>
		<path fill="#E6E9ED" d="M164.438,257.828c4.156-4.156,10.906-4.156,15.078,0c4.172,4.172,4.172,10.922,0,15.094    c-4.172,4.156-10.922,4.156-15.078,0C160.266,268.75,160.266,262,164.438,257.828z"/>
	</g>
	<g>
		<polygon fill="#E6E9ED" points="405.344,192 106.688,192 64,85.328 448,85.328   "/>
	</g>
	<path fill="#37BC9B" d="M480,128c0,5.891-4.75,10.672-10.656,10.672c-5.875,0-10.656-4.781-10.656-10.672   s4.781-10.672,10.656-10.672C475.25,117.328,480,122.109,480,128z"/>
	<path fill="#37BC9B" d="M480,384c0,5.891-4.75,10.672-10.656,10.672c-5.875,0-10.656-4.781-10.656-10.672   s4.781-10.672,10.656-10.672C475.25,373.328,480,378.109,480,384z"/>
	<path fill="#37BC9B" d="M53.344,128c0,5.891-4.781,10.672-10.656,10.672C36.781,138.672,32,133.891,32,128   s4.781-10.672,10.688-10.672C48.562,117.328,53.344,122.109,53.344,128z"/>
	<path fill="#CCD1D9" d="M352,128H160c-5.875,0-10.656,4.781-10.656,10.672s4.781,10.656,10.656,10.656h192   c5.906,0,10.688-4.766,10.688-10.656S357.906,128,352,128z"/>
	<path fill="#37BC9B" d="M53.344,384c0,5.891-4.781,10.672-10.656,10.672C36.781,394.672,32,389.891,32,384   s4.781-10.672,10.688-10.672C48.562,373.328,53.344,378.109,53.344,384z"/>
</g>
</svg>
