<?xml version="1.0" standalone="no"?>
<!DOCTYPE svg PUBLIC "-//W3C//DTD SVG 20010904//EN"
 "http://www.w3.org/TR/2001/REC-SVG-20010904/DTD/svg10.dtd">
<svg version="1.0" xmlns="http://www.w3.org/2000/svg"
 width="700.000000pt" height="700.000000pt" viewBox="0 0 700.000000 700.000000"
 preserveAspectRatio="xMidYMid meet">
<metadata>
Created by potrace 1.11, written by Peter Selinger 2001-2013
</metadata>
<g transform="translate(0.000000,700.000000) scale(0.100000,-0.100000)"
fill="#000000" stroke="none">
<path d="M251 5828 c-29 -5 -70 -16 -90 -25 -55 -27 -117 -96 -140 -159 -21
-55 -21 -57 -20 -2147 0 -2061 0 -2093 20 -2144 25 -66 86 -128 157 -161 l57
-26 3266 0 3267 0 65 32 c74 37 119 86 148 162 18 48 19 115 18 2142 0 2069 0
2094 -20 2145 -32 82 -117 158 -202 180 -34 9 -6465 9 -6526 1z"/>
</g>
</svg>
