<svg width="194" height="49" viewBox="0 0 194 49" fill="none" xmlns="http://www.w3.org/2000/svg">
<path d="M30.1326 45.0702C27.7381 46.5664 25.1485 47.3643 22.3638 47.4638C19.5921 47.5069 16.9701 46.9016 14.4977 45.6478C12.0601 44.3723 10.1149 42.572 8.66203 40.2469C6.88388 37.4013 6.14679 34.2912 6.45074 30.9166C6.78939 27.5203 8.06925 24.5492 10.2903 22.0032C8.55962 22.1679 6.89835 21.9031 5.30652 21.209C3.71469 20.5148 2.44172 19.4043 1.48759 17.8773C0.59852 16.4545 0.13888 14.9081 0.108674 13.2381C0.0784681 11.5682 0.471168 9.99584 1.28677 8.52114C2.10238 7.04643 3.23894 5.8537 4.69645 4.94295C6.15397 4.03219 7.72422 3.53351 9.40721 3.44692C11.0902 3.36033 12.6756 3.69664 14.1633 4.45586C15.651 5.21507 16.8394 6.30609 17.7285 7.7289C18.6392 9.18642 19.0815 10.7437 19.0553 12.4006C19.0292 14.0576 18.567 15.6733 17.669 17.2477C19.8249 16.5279 22.011 16.3199 24.2275 16.6237C26.444 16.9276 28.5108 17.6868 30.4279 18.9015C32.345 20.1163 33.9215 21.7126 35.1576 23.6907C36.6321 26.0505 37.4083 28.6054 37.4861 31.3554C37.5639 34.1055 36.9478 36.7101 35.6376 39.1694C34.3621 41.607 32.5271 43.5739 30.1326 45.0702ZM13.5438 19.1017C14.6543 18.4078 15.511 17.4622 16.1141 16.2651C16.7518 15.0463 17.0621 13.7668 17.0449 12.4264C17.0276 11.0861 16.6721 9.86073 15.9782 8.75024C15.2843 7.63975 14.3387 6.78299 13.1416 6.17995C11.9445 5.57692 10.6693 5.3122 9.31594 5.38581C7.97563 5.40304 6.75022 5.75861 5.63974 6.45252C4.52925 7.14643 3.65514 8.10278 3.01739 9.32158C2.39267 10.484 2.08893 11.7354 2.10615 13.0757C2.12337 14.416 2.47894 15.6414 3.17285 16.7519C3.86676 17.8624 4.81227 18.7191 6.00939 19.3222C7.20651 19.9252 8.47523 20.2181 9.81554 20.2009C11.1906 20.162 12.4333 19.7956 13.5438 19.1017ZM29.1894 43.5606C31.2368 42.2812 32.8202 40.568 33.9395 38.421C35.0588 36.274 35.586 33.9903 35.5212 31.57C35.4563 29.1496 34.7734 26.8983 33.4723 24.8161C32.1929 22.7687 30.4797 21.1853 28.3327 20.066C26.164 18.912 23.8695 18.3674 21.4491 18.4323C19.0634 18.4754 16.8469 19.1367 14.7994 20.4161C12.7519 21.6955 11.1512 23.4195 9.99721 25.5882C8.87791 27.7352 8.34417 30.0471 8.39599 32.5238C8.46083 34.9442 9.13295 37.1781 10.4123 39.2256C11.6917 41.2731 13.4158 42.8738 15.5845 44.0278C17.7315 45.1471 20.0152 45.6743 22.4355 45.6095C24.8906 45.523 27.1419 44.84 29.1894 43.5606Z" fill="#FF0000"/>
<path d="M49.3653 3.58089H38.7464V1.80084H61.8871V3.58089H51.3909V47.8366H49.3653V3.58089Z" fill="black"/>
<path d="M108.891 47.8366H106.743L98.0266 30.2817H73.5969L65.065 47.8366H62.9166L85.8732 0.695984L108.891 47.8366ZM97.29 28.5016L85.7504 5.11542L74.4563 28.5016H97.29Z" fill="black"/>
<path d="M118.127 1.80084H120.153C124.982 1.80084 128.746 3.08984 131.447 5.66785C134.148 8.20494 135.498 11.6218 135.498 15.9185C135.498 18.9057 134.844 21.5655 133.534 23.898C132.225 26.1896 130.445 27.9696 128.194 29.2382C125.943 30.4658 123.427 31.0796 120.644 31.0796H120.153V47.8366H118.127V1.80084ZM120.767 29.2996C124.491 29.2996 127.539 28.1538 129.913 25.8622C132.286 23.5297 133.473 20.2561 133.473 16.0413C133.473 12.031 132.347 8.96197 130.097 6.83409C127.887 4.66529 124.736 3.58089 120.644 3.58089H120.153V29.2996H120.767Z" fill="black"/>
<path d="M144.981 1.80084H161.492V3.58089H147.006V28.6244H159.098V30.4044H147.006V46.0566H161.492V47.8366H144.981V1.80084Z" fill="black"/>
<path d="M180.031 48.696C174.916 48.696 170.946 46.5886 168.123 42.3737V39.0592C169.228 41.5144 170.824 43.4377 172.911 44.829C175.038 46.2203 177.576 46.9159 180.522 46.9159C182.568 46.9159 184.45 46.4658 186.169 45.5655C187.928 44.6653 189.32 43.3968 190.343 41.7599C191.366 40.1231 191.877 38.2407 191.877 36.1129C191.877 34.1896 191.55 32.5323 190.895 31.141C190.24 29.7497 189.156 28.4198 187.642 27.1512C186.128 25.8418 183.939 24.3072 181.074 22.5476L179.11 21.32C177.31 20.2152 175.857 19.2331 174.752 18.3737C173.647 17.5144 172.686 16.5118 171.867 15.3661C170.803 13.7702 170.271 11.9287 170.271 9.84176C170.271 7.05915 171.171 4.89036 172.972 3.33537C174.772 1.78038 177.064 1.00289 179.847 1.00289C183.611 1.00289 186.599 2.39419 188.808 5.1768V8.30723C187.867 6.58856 186.578 5.23818 184.941 4.25608C183.304 3.27399 181.504 2.78294 179.54 2.78294C177.494 2.78294 175.775 3.41721 174.384 4.68575C172.992 5.95429 172.297 7.6525 172.297 9.78038C172.297 11.8673 172.931 13.6679 174.2 15.1819C175.509 16.6551 177.698 18.2714 180.767 20.031C184.532 22.2407 187.458 24.2459 189.545 26.0464C191.018 27.3967 192.082 28.8904 192.737 30.5272C193.432 32.164 193.78 33.985 193.78 35.9901C193.78 38.5272 193.187 40.7574 192 42.6806C190.813 44.6039 189.177 46.0975 187.09 47.1615C185.003 48.1845 182.65 48.696 180.031 48.696Z" fill="black"/>
</svg>
